<svg width="20" height="16" viewBox="0 0 20 16" fill="none" xmlns="http://www.w3.org/2000/svg">
  <path fill-rule="evenodd" clip-rule="evenodd" d="M0.5 2C0.5 1.30964 1.05964 0.75 1.75 0.75H18.25C18.9404 0.75 19.5 1.30964 19.5 2C19.5 2.69036 18.9404 3.25 18.25 3.25H1.75C1.05964 3.25 0.5 2.69036 0.5 2ZM0.5 8C0.5 7.30964 1.05964 6.75 1.75 6.75H18.25C18.9404 6.75 19.5 7.30964 19.5 8C19.5 8.69036 18.9404 9.25 18.25 9.25H1.75C1.05964 9.25 0.5 8.69036 0.5 8ZM0.5 14C0.5 13.3096 1.05964 12.75 1.75 12.75H18.25C18.9404 12.75 19.5 13.3096 19.5 14C19.5 14.6904 18.9404 15.25 18.25 15.25H1.75C1.05964 15.25 0.5 14.6904 0.5 14Z" fill="#333333"/>
</svg>
