<svg width="8" height="16" viewBox="0 0 8 16" fill="none" xmlns="http://www.w3.org/2000/svg">
  <path d="M7.69706 0.00446194H5.77806C5.29327 -0.0212301 4.80896 0.0642523 4.3578 0.255141C3.90663 0.44603 3.49912 0.737885 3.16274 1.11101C2.82637 1.48414 2.56896 1.92986 2.4079 2.4181C2.24683 2.90633 2.18584 3.42573 2.22906 3.94123V5.75394H0.300059C0.260153 5.75393 0.220646 5.76241 0.183852 5.77889C0.147058 5.79536 0.113716 5.8195 0.0857782 5.84989C0.0578407 5.88027 0.0358682 5.9163 0.0211496 5.95585C0.00643091 5.9954 -0.000738113 6.03768 6.00189e-05 6.08023V8.71185C-0.000738113 8.7544 0.00643091 8.79668 0.0211496 8.83623C0.0358682 8.87579 0.0578407 8.91181 0.0857782 8.9422C0.113716 8.97258 0.147058 8.99672 0.183852 9.01319C0.220646 9.02967 0.260153 9.03815 0.300059 9.03814H2.22906V15.6737C2.22826 15.7163 2.23543 15.7585 2.25015 15.7981C2.26487 15.8376 2.28684 15.8737 2.31478 15.9041C2.34272 15.9344 2.37606 15.9586 2.41285 15.9751C2.44965 15.9915 2.48915 16 2.52906 16H5.04606C5.08597 16 5.12547 15.9915 5.16227 15.9751C5.19906 15.9586 5.2324 15.9344 5.26034 15.9041C5.28828 15.8737 5.31025 15.8376 5.32497 15.7981C5.33969 15.7585 5.34686 15.7163 5.34606 15.6737V9.03707H7.60206C7.64197 9.03708 7.68147 9.0286 7.71827 9.01213C7.75506 8.99565 7.7884 8.97151 7.81634 8.94113C7.84428 8.91074 7.86625 8.87472 7.88097 8.83517C7.89569 8.79562 7.90286 8.75333 7.90206 8.71079V6.08236C7.90218 5.99626 7.87057 5.91355 7.81406 5.85204C7.78616 5.82169 7.75286 5.79757 7.71612 5.78109C7.67938 5.76461 7.63992 5.75611 7.60006 5.75607H5.35006V4.21741C5.35006 3.47846 5.51306 3.10206 6.40406 3.10206H7.69706C7.73697 3.10207 7.77647 3.09359 7.81327 3.07711C7.85006 3.06064 7.8834 3.0365 7.91134 3.00611C7.93928 2.97573 7.96125 2.9397 7.97597 2.90015C7.99069 2.8606 7.99786 2.81831 7.99706 2.77577V0.333948C7.99826 0.291139 7.99139 0.248508 7.97686 0.208582C7.96232 0.168657 7.94042 0.132251 7.91244 0.101522C7.88446 0.0707941 7.85098 0.0463693 7.81398 0.0296966C7.77699 0.0130238 7.73722 0.00444266 7.69706 0.00446194Z" fill="#333333"/>
</svg>
