<svg width="14" height="14" viewBox="0 0 14 14" fill="none" xmlns="http://www.w3.org/2000/svg">
  <path d="M9.9344 0H4.0656C2.98772 0.00123512 1.95433 0.42997 1.19215 1.19215C0.42997 1.95433 0.00123512 2.98772 0 4.0656L0 9.93067C0.000493458 11.0091 0.428872 12.0433 1.19111 12.8063C1.95334 13.5692 2.98714 13.9985 4.0656 14H9.93067C11.0092 13.9998 12.0435 13.5715 12.8065 12.8092C13.5695 12.0469 13.9988 11.0129 14 9.9344V4.0656C13.9998 2.98741 13.5713 1.95345 12.8089 1.19106C12.0465 0.428666 11.0126 0.000247433 9.9344 0V0ZM7 10.1005C6.38677 10.1005 5.78732 9.91869 5.27744 9.578C4.76756 9.23731 4.37015 8.75307 4.13548 8.18652C3.90081 7.61997 3.83941 6.99656 3.95904 6.39512C4.07868 5.79367 4.37397 5.24121 4.80759 4.80759C5.24121 4.37397 5.79367 4.07868 6.39512 3.95904C6.99656 3.83941 7.61997 3.90081 8.18652 4.13548C8.75307 4.37015 9.23731 4.76756 9.578 5.27744C9.91869 5.78732 10.1005 6.38677 10.1005 7C10.0993 7.82193 9.77224 8.60985 9.19105 9.19105C8.60985 9.77224 7.82193 10.0993 7 10.1005ZM10.8005 3.98347C10.6447 3.98347 10.4924 3.93727 10.3629 3.85071C10.2333 3.76415 10.1324 3.64113 10.0728 3.49719C10.0131 3.35325 9.99754 3.19486 10.0279 3.04205C10.0583 2.88925 10.1334 2.74889 10.2435 2.63872C10.3537 2.52856 10.494 2.45353 10.6469 2.42314C10.7997 2.39274 10.958 2.40834 11.102 2.46796C11.2459 2.52758 11.369 2.62855 11.4555 2.75809C11.5421 2.88763 11.5883 3.03993 11.5883 3.19573C11.588 3.40466 11.505 3.60498 11.3573 3.7528C11.2097 3.90063 11.0095 3.98391 10.8005 3.9844V3.98347Z" fill="#333333"/>
</svg>