<svg width="20" height="21" viewBox="0 0 20 21" fill="none" xmlns="http://www.w3.org/2000/svg">
<path d="M19.738 19.482L15.995 15.715C17.4626 13.9264 18.1863 11.642 18.0164 9.33457C17.8465 7.02717 16.7959 4.87342 15.0822 3.31908C13.3684 1.76473 11.1226 0.928789 8.80964 0.984252C6.49665 1.03972 4.29353 1.98234 2.65623 3.61704C1.01894 5.25174 0.0728221 7.45336 0.0136901 9.76626C-0.045442 12.0791 0.78694 14.3262 2.33856 16.0425C3.89019 17.7587 6.04226 18.8127 8.34939 18.9863C10.6565 19.1598 12.9421 18.4397 14.733 16.975L18.476 20.737C18.6426 20.9044 18.8688 20.9987 19.1049 20.9992C19.2218 20.9995 19.3376 20.9768 19.4457 20.9323C19.5539 20.8878 19.6522 20.8225 19.735 20.74C19.8179 20.6575 19.8837 20.5595 19.9287 20.4516C19.9737 20.3437 19.997 20.228 19.9973 20.1111C19.9975 19.9942 19.9748 19.8784 19.9303 19.7703C19.8858 19.6622 19.8205 19.5639 19.738 19.481V19.482ZM9.01902 17.22C7.5923 17.2174 6.19837 16.792 5.01337 15.9974C3.82837 15.2029 2.9055 14.0749 2.36139 12.756C1.81728 11.4371 1.67635 9.98651 1.95641 8.58754C2.23647 7.18858 2.92495 5.90403 3.93484 4.89623C4.94473 3.88844 6.23071 3.20263 7.63025 2.92547C9.0298 2.64832 10.4801 2.79227 11.7978 3.33911C13.1156 3.88596 14.2417 4.81117 15.0338 5.99782C15.8259 7.18446 16.2484 8.57928 16.248 10.006C16.2443 11.9207 15.481 13.7558 14.1257 15.1083C12.7704 16.4608 10.9338 17.2203 9.01902 17.22Z" fill="#333333"/>
</svg>
