<svg width="19" height="15" viewBox="0 0 19 15" fill="none" xmlns="http://www.w3.org/2000/svg">
<path d="M18.002 1.70411C17.3274 1.99861 16.613 2.19169 15.882 2.27711C16.6482 1.82573 17.2241 1.11092 17.502 0.26611C16.7749 0.689725 15.9819 0.98821 15.156 1.14911C14.8077 0.784018 14.3887 0.493813 13.9244 0.29625C13.4602 0.0986861 12.9605 -0.00208064 12.456 0.000110949C11.4857 -0.0049496 10.5529 0.374974 9.86234 1.05658C9.17174 1.73818 8.77962 2.66582 8.77195 3.63611C8.77296 3.91539 8.80652 4.1936 8.87195 4.46511C7.40905 4.39535 5.97676 4.02141 4.66647 3.36712C3.35619 2.71284 2.19668 1.79259 1.26195 0.665108C0.933505 1.21821 0.76074 1.84984 0.761953 2.49311C0.762792 3.09396 0.913137 3.68516 1.19944 4.21342C1.48574 4.74168 1.89899 5.19039 2.40195 5.51911C1.81523 5.4995 1.24139 5.34191 0.726953 5.05911V5.10411C0.732206 5.94932 1.03023 6.76658 1.57029 7.41677C2.11035 8.06695 2.85906 8.50987 3.68895 8.67011C3.37148 8.75438 3.04442 8.79707 2.71595 8.79711C2.48096 8.79734 2.24651 8.77457 2.01595 8.72911C2.25681 9.45761 2.71889 10.0929 3.33783 10.5464C3.95676 10.9998 4.70173 11.249 5.46895 11.2591C4.15523 12.2713 2.5424 12.8183 0.883953 12.8141C0.589162 12.8121 0.294709 12.7937 0.00195312 12.7591C1.69507 13.8307 3.65824 14.3981 5.66195 14.3951C7.03353 14.4158 8.39554 14.1636 9.66879 13.6532C10.942 13.1429 12.1012 12.3845 13.0787 11.4222C14.0563 10.4599 14.8328 9.31286 15.3631 8.04779C15.8935 6.78272 16.167 5.42484 16.168 4.05311L16.156 3.58211C16.8798 3.07295 17.5053 2.43664 18.002 1.70411Z" fill="#333333"/>
</svg>
